<svg id="Layer_1" data-name="Layer 1" xmlns="http://www.w3.org/2000/svg" viewBox="0 0 429.34 78.34"><defs><style>.cls-1{fill:#fff;}</style></defs><path class="cls-1" d="M264.17,328.67c-2.31,1.15-6.92,2.3-12.82,2.3-13.68,0-24-8.64-24-24.55,0-15.2,10.3-25.5,25.35-25.5,6,0,9.86,1.3,11.52,2.16l-1.51,5.12a22.75,22.75,0,0,0-9.8-2c-11.37,0-18.94,7.27-18.94,20,0,11.88,6.85,19.51,18.65,19.51a25.16,25.16,0,0,0,10.23-2Z" transform="translate(-173 -264.12)"/><path class="cls-1" d="M278.64,285.61a3.93,3.93,0,0,1-7.85,0,3.86,3.86,0,0,1,4-4A3.77,3.77,0,0,1,278.64,285.61Zm-7.06,44.64V295.4h6.33v34.85Z" transform="translate(-173 -264.12)"/><path class="cls-1" d="M296.06,285.39v10h9.07v4.82h-9.07V319c0,4.32,1.22,6.76,4.75,6.76a13.89,13.89,0,0,0,3.67-.43l.29,4.76a15.61,15.61,0,0,1-5.62.86,8.79,8.79,0,0,1-6.84-2.67c-1.8-1.87-2.44-5-2.44-9.07v-19h-5.4V295.4h5.4V287Z" transform="translate(-173 -264.12)"/><path class="cls-1" d="M319.31,285.61a3.92,3.92,0,0,1-7.84,0,3.86,3.86,0,0,1,4-4A3.76,3.76,0,0,1,319.31,285.61Zm-7.05,44.64V295.4h6.33v34.85Z" transform="translate(-173 -264.12)"/><path class="cls-1" d="M325.14,326.58l15.77-20.53c1.52-1.87,3-3.52,4.54-5.4v-.14H326.58V295.4h26.57l-.07,4-15.55,20.23c-1.44,2-2.88,3.67-4.47,5.47v.15h20.38v5h-28.3Z" transform="translate(-173 -264.12)"/><path class="cls-1" d="M363,314c.14,8.56,5.61,12.09,11.95,12.09a22.89,22.89,0,0,0,9.65-1.8l1.08,4.54A28.21,28.21,0,0,1,374,331c-10.72,0-17.13-7.06-17.13-17.57s6.19-18.79,16.34-18.79c11.38,0,14.4,10,14.4,16.41a24.69,24.69,0,0,1-.21,3Zm18.57-4.54c.08-4-1.65-10.3-8.78-10.3-6.41,0-9.22,5.91-9.72,10.3Z" transform="translate(-173 -264.12)"/><path class="cls-1" d="M395.49,304.83c0-3.6-.07-6.55-.29-9.43h5.62l.36,5.76h.14a12.82,12.82,0,0,1,11.52-6.55c4.83,0,12.31,2.88,12.31,14.83v20.81h-6.33V310.16c0-5.62-2.09-10.3-8.07-10.3a9.32,9.32,0,0,0-8.93,9.43v21h-6.33Z" transform="translate(-173 -264.12)"/><path class="cls-1" d="M459,330.25l-15.84-48.53h6.77l7.56,23.9c2.09,6.56,3.89,12.46,5.18,18.15h.15c1.37-5.62,3.38-11.74,5.54-18.07l8.21-24h6.7L465.9,330.25Z" transform="translate(-173 -264.12)"/><path class="cls-1" d="M517.46,312.54c0,12.88-8.93,18.5-17.36,18.5-9.43,0-16.7-6.91-16.7-17.93,0-11.66,7.63-18.5,17.28-18.5C510.69,294.61,517.46,301.88,517.46,312.54Zm-27.65.36c0,7.63,4.39,13.39,10.58,13.39S511,320.6,511,312.75c0-5.9-3-13.39-10.44-13.39S489.81,306.27,489.81,312.9Z" transform="translate(-173 -264.12)"/><path class="cls-1" d="M532.5,285.61a3.92,3.92,0,0,1-7.84,0,3.86,3.86,0,0,1,4-4A3.76,3.76,0,0,1,532.5,285.61Zm-7,44.64V295.4h6.33v34.85Z" transform="translate(-173 -264.12)"/><path class="cls-1" d="M567.14,329a23.26,23.26,0,0,1-10,2c-10.51,0-17.36-7.13-17.36-17.79s7.35-18.5,18.73-18.5a21.08,21.08,0,0,1,8.78,1.8l-1.44,4.9a14.62,14.62,0,0,0-7.34-1.66c-8,0-12.32,5.9-12.32,13.18,0,8.06,5.19,13,12.1,13a18,18,0,0,0,7.78-1.73Z" transform="translate(-173 -264.12)"/><path class="cls-1" d="M577.65,314c.14,8.56,5.61,12.09,12,12.09a22.89,22.89,0,0,0,9.65-1.8l1.08,4.54A28.19,28.19,0,0,1,588.74,331c-10.73,0-17.14-7.06-17.14-17.57s6.19-18.79,16.34-18.79c11.38,0,14.4,10,14.4,16.41a24.69,24.69,0,0,1-.21,3Zm18.57-4.54c.08-4-1.65-10.3-8.78-10.3-6.41,0-9.22,5.91-9.72,10.3Z" transform="translate(-173 -264.12)"/><path class="cls-1" d="M195.7,283.75a6.87,6.87,0,1,0-6.88-6.87A6.87,6.87,0,0,0,195.7,283.75Zm4.29-4.23a5,5,0,0,1-8.58,0Z" transform="translate(-173 -264.12)"/><path class="cls-1" d="M187.05,271l-2.22-6.88-10.64,3.44-.25-.77-.94.3,4.23,13.07a2.45,2.45,0,0,0-1.47,2.95c2,7.13,3.79,10.19,6.34,10.93a3.94,3.94,0,0,0,1.14.17c1.72,0,3.11-1.13,4.2-2.1v46.57a3.78,3.78,0,1,0,7.55,0V311.11h1.42v27.57a3.78,3.78,0,1,0,7.55,0V292.85c1.37,2.84,2.58,8.57,1.95,19.3a2.44,2.44,0,0,0,2.3,2.58h.15a2.44,2.44,0,0,0,2.43-2.31c.76-12.9-.86-21.32-4.79-25a6.47,6.47,0,0,0-4.25-1.91H189.8a1.87,1.87,0,0,0-.34,0c-2.19.17-3.82,1.64-5,2.73-.32.28-.75.67-1.07.9-.45-.57-1.47-2.3-2.9-7.37a2.45,2.45,0,0,0-2.24-1.78l-1.8-5.56Z" transform="translate(-173 -264.12)"/></svg>